<?xml version="1.0" encoding="UTF-8"?>
<svg xmlns="http://www.w3.org/2000/svg" viewBox="0 0 100 100">
  <defs>
    <linearGradient id="lw" x1="1" y1="0" x2="0" y2="0">
      <stop offset="0%"   stop-color="#7a1800"/>
      <stop offset="38%"  stop-color="#d63200"/>
      <stop offset="70%"  stop-color="#ff7700"/>
      <stop offset="100%" stop-color="#ffcc00"/>
    </linearGradient>
    <linearGradient id="rw" x1="0" y1="0" x2="1" y2="0">
      <stop offset="0%"   stop-color="#7a1800"/>
      <stop offset="38%"  stop-color="#d63200"/>
      <stop offset="70%"  stop-color="#ff7700"/>
      <stop offset="100%" stop-color="#ffcc00"/>
    </linearGradient>
    <linearGradient id="flame" x1="0.5" y1="1" x2="0.5" y2="0">
      <stop offset="0%"   stop-color="#ff7700"/>
      <stop offset="100%" stop-color="#ffee00"/>
    </linearGradient>
  </defs>

  <!-- Dark rounded background -->
  <rect width="100" height="100" rx="20" fill="#14161b"/>

  <!-- Wings: source 160×88, scaled to 94×51, centered: translate(3, 28) scale(0.590) -->
  <g transform="translate(3, 28) scale(0.590)">

    <!-- LEFT WING -->
    <path d="M 78 76
             C 60 62 38 44 14 18
             C 10 14 8 18 10 22
             C 32 46 58 64 76 82
             Z"
          fill="url(#lw)" stroke="#5a1200" stroke-width="1.6"/>

    <!-- Left flame feathers -->
    <path d="M 14 18 C 10  8  9  2 12 -2 C 15  4 14 12 15 20 Z" fill="#ffcc00" stroke="#aa4400" stroke-width="1"/>
    <path d="M 21 13 C 18  3 18 -2 21 -4 C 23  2 22 10 22 15 Z" fill="#ffd900" stroke="#aa4400" stroke-width="1"/>
    <path d="M 28 10 C 26  0 27 -4 30 -5 C 32  1 31  8 30 12 Z" fill="#ffdd55" stroke="#aa4400" stroke-width="1"/>
    <path d="M 35  8 C 34  0 35 -4 38 -4 C 39  2 38  8 37 10 Z" fill="#ffe577" stroke="#aa4400" stroke-width="1"/>

    <!-- LEFT wisp -->
    <path d="M 50 58 C 49 50 48 44 50 41 C 52 45 51 52 52 59 Z" fill="url(#flame)" opacity="0.8"/>

    <!-- RIGHT WING -->
    <path d="M 82 76
             C 100 62 122 44 146 18
             C 150 14 152 18 150 22
             C 128 46 102 64 84 82
             Z"
          fill="url(#rw)" stroke="#5a1200" stroke-width="1.6"/>

    <!-- Right flame feathers -->
    <path d="M 146 18 C 150  8 151  2 148 -2 C 145  4 146 12 145 20 Z" fill="#ffcc00" stroke="#aa4400" stroke-width="1"/>
    <path d="M 139 13 C 142  3 142 -2 139 -4 C 137  2 138 10 138 15 Z" fill="#ffd900" stroke="#aa4400" stroke-width="1"/>
    <path d="M 132 10 C 134  0 133 -4 130 -5 C 128  1 129  8 130 12 Z" fill="#ffdd55" stroke="#aa4400" stroke-width="1"/>
    <path d="M 125  8 C 126  0 125 -4 122 -4 C 121  2 122  8 123 10 Z" fill="#ffe577" stroke="#aa4400" stroke-width="1"/>

    <!-- Right wisp -->
    <path d="M 110 58 C 111 50 112 44 110 41 C 108 45 109 52 108 59 Z" fill="url(#flame)" opacity="0.8"/>

    <!-- Central flame -->
    <path d="M 80 72 C 77 62 77 54 80 48 C 83 54 83 62 80 72 Z" fill="#ff8800" stroke="#5a1200" stroke-width="1.1"/>
    <path d="M 80 68 C 78 58 79 52 80 46 C 81 52 82 58 80 68 Z" fill="#ffcc00" opacity="0.65"/>
  </g>
</svg>
