<?xml version="1.0" encoding="UTF-8"?>
<svg xmlns="http://www.w3.org/2000/svg" viewBox="0 0 100 100">
  <defs>
    <linearGradient id="f" x1="0.5" y1="0" x2="0.5" y2="1">
      <stop offset="0%"   stop-color="#ffe082"/>
      <stop offset="30%"  stop-color="#ffd166"/>
      <stop offset="65%"  stop-color="#ff8a3d"/>
      <stop offset="100%" stop-color="#ff4d1c"/>
    </linearGradient>
  </defs>

  <!-- Background -->
  <rect width="100" height="100" rx="20" fill="#14161b"/>

  <!-- CREST -->
  <path d="M50 18 C49 11 46  6 48  3 C50  6 50 13 50 18Z" fill="#ffe082"/>
  <path d="M50 18 C50  9 49  4 50  1 C51  4 50  9 50 18Z" fill="#fff0b3"/>
  <path d="M50 18 C51 11 54  6 52  3 C50  6 50 13 50 18Z" fill="#ffe082"/>

  <!-- HEAD -->
  <ellipse cx="50" cy="24" rx="9" ry="8" fill="#ffd166"/>

  <!-- BEAK -->
  <path d="M47 31 L50 36 L53 31Z" fill="#ffb347"/>

  <!-- BODY -->
  <ellipse cx="50" cy="55" rx="11" ry="13" fill="url(#f)"/>

  <!-- LEFT WING -->
  <path d="M40 48 C30 40 16 30 6 27 C3 26 3 29 5 31 C13 36 25 43 35 52 C37 55 39 59 40 62Z" fill="url(#f)"/>

  <!-- RIGHT WING -->
  <path d="M60 48 C70 40 84 30 94 27 C97 26 97 29 95 31 C87 36 75 43 65 52 C63 55 61 59 60 62Z" fill="url(#f)"/>

  <!-- TAIL -->
  <path d="M50 67 C50 75 50 84 50 92 C50 84 50 75 50 67Z"      fill="#ff8a3d"/>
  <path d="M45 69 C41 77 40 86 43 94 C46 86 48 77 50 73Z"      fill="#ff6a2c"/>
  <path d="M55 69 C59 77 60 86 57 94 C54 86 52 77 50 73Z"      fill="#ff6a2c"/>
  <path d="M39 71 C34 80 32 90 36 98 C41 89 45 80 48 76Z"      fill="#ff5020"/>
  <path d="M61 71 C66 80 68 90 64 98 C59 89 55 80 52 76Z"      fill="#ff5020"/>
</svg>
