<?xml version="1.0" encoding="UTF-8"?>
<svg xmlns="http://www.w3.org/2000/svg" viewBox="0 0 100 108" role="img" aria-label="Phoenix">
  <defs>
    <linearGradient id="f" x1="0.5" y1="0" x2="0.5" y2="1">
      <stop offset="0%"   stop-color="#fff0b3"/>
      <stop offset="25%"  stop-color="#ffd166"/>
      <stop offset="60%"  stop-color="#ff8a3d"/>
      <stop offset="100%" stop-color="#ff4d1c"/>
    </linearGradient>
  </defs>

  <!-- CREST: 3 flame feathers -->
  <path d="M50 16 C48  8 45  3 47  0 C49  4 50 10 50 16Z" fill="#fff0b3"/>
  <path d="M50 16 C50  7 49  2 50 -1 C51  2 50  7 50 16Z" fill="#ffe082"/>
  <path d="M50 16 C52  8 55  3 53  0 C51  4 50 10 50 16Z" fill="#fff0b3"/>

  <!-- HEAD -->
  <ellipse cx="50" cy="22" rx="8.5" ry="7.5" fill="#ffd166"/>

  <!-- BEAK: small downward-pointing triangle -->
  <path d="M47 28 L50 33 L53 28Z" fill="#ffb347"/>

  <!-- NECK into body -->
  <path d="M43 26 C41 32 40 39 39 46 L61 46 C60 39 59 32 57 26Z" fill="#ffb347"/>

  <!-- BODY -->
  <ellipse cx="50" cy="54" rx="12" ry="14" fill="url(#f)"/>

  <!-- LEFT WING -->
  <path d="M40 45
           C 30 36 16 26  6 22
           C  3 21  2 23  4 26
           C 12 31 24 39 34 48
           C 36 51 38 55 39 59
           Z" fill="url(#f)"/>

  <!-- LEFT primary feathers: 3 fingertips -->
  <path d="M 6 22 C  2 19  0 24  1 27 C  3 25  5 23  7 24Z" fill="#ffd166"/>
  <path d="M10 17 C  6 13  4 18  5 21 C  7 20  9 18 11 19Z" fill="#ffe082"/>
  <path d="M16 12 C 13  8 10 12 12 15 C 13 14 15 12 17 13Z" fill="#ffe082"/>

  <!-- RIGHT WING -->
  <path d="M60 45
           C 70 36 84 26 94 22
           C 97 21 98 23 96 26
           C 88 31 76 39 66 48
           C 64 51 62 55 61 59
           Z" fill="url(#f)"/>

  <!-- RIGHT primary feathers: mirror -->
  <path d="M94 22 C 98 19 100 24 99 27 C 97 25 95 23 93 24Z" fill="#ffd166"/>
  <path d="M90 17 C 94 13  96 18 95 21 C 93 20 91 18 89 19Z" fill="#ffe082"/>
  <path d="M84 12 C 87  8  90 12 88 15 C 87 14 85 12 83 13Z" fill="#ffe082"/>

  <!-- TAIL: 5 long flame feathers -->
  <path d="M50 67 C50 76 50 87 50 96 C50 87 50 76 50 67Z"          fill="#ff8a3d"/>
  <path d="M45 68 C41 77 40 88 43 97 C46 88 48 77 50 72Z"          fill="#ff6a2c"/>
  <path d="M55 68 C59 77 60 88 57 97 C54 88 52 77 50 72Z"          fill="#ff6a2c"/>
  <path d="M39 70 C33 80 31 92 35 102 C40 92 44 81 48 75Z"         fill="#ff5020"/>
  <path d="M61 70 C67 80 69 92 65 102 C60 92 56 81 52 75Z"         fill="#ff5020"/>
</svg>
